Patient4_TMGait_0pt2_03_left_25_EMG.mot
version=1
nRows=16
nColumns=33
inDegrees=no
endheader
time	1LAddLong	2LGlutMax	3LGlutMed	4LIliopsoas	5LSemiMemb	6LBicFemLong	7LRecFem	8LVastMed	9LVastLat	10LGasMed	11LTibAnt	12lTibPost	13LPeroneusLong	14LSol	15LExtDigLong	16LFlexDigLong	17RAddLong	18RGlutMax	19RGlutMed	20RIliopsoas	21RSemiMemb	22RBicFemLong	23RRecFem	24RVastMed	25RVastLat	26RGasMed	27RTibAnt	28RTibPost	29RPeroneusLong	30RSol	31RExtDigLong	32RFlexDigLong
52.19	0.003662	0.23544	0.007935	0.021973	0.002899	-0.020142	-0.014954	-0.018311	0.021973	-0.050812	0.25894	-0.005951	0.025787	0.073547	0.13306	-0.028992	0.007782	0.22553	-0.2153	-0.019989	-0.011597	0.045776	-0.35233	-0.13641	-0.103	-0.002289	0.04715	-0.003662	0.26871	0.05249	-0.000153	-0.00412
52.191	0.004883	0.26199	0.082855	-0.027771	0.002899	-0.017242	-0.014496	-0.013428	0.032501	-0.052032	0.31418	0.001068	0.080719	0.084534	-0.030823	-0.026093	-0.004578	0.3064	0.39887	-0.08255	-0.017395	0.10727	-0.23666	-0.1918	0.055542	-0.004883	0.031128	-0.003204	-0.055084	-0.015717	0.003662	0.001526
52.192	-0.001373	0.22446	0.061493	-0.041656	0.010071	-0.027008	-0.039215	-0.024872	0.024109	-0.059204	0.2655	-0.006866	0.082245	0.074005	-0.20599	-0.021667	0.006561	0.29312	-0.062256	-0.10117	-0.018311	0.10498	-0.21576	-0.13687	0.13367	0.012665	-0.024109	-0.007935	-0.38086	-0.031738	-0.004272	-0.002289
52.193	0.005646	0.2121	0.044708	-0.037537	0.01236	-0.02594	-0.036926	-0.025635	0.015259	-0.036011	-0.13779	0.007782	0.050201	0.066528	-0.1944	-0.016022	0.029297	0.21927	-0.31616	0.045929	-0.013275	0.07309	-0.15671	0.11337	0.24185	-0.000916	0.074921	-0.003815	-0.019073	-0.049286	0.001831	-0.005493
52.194	0.000763	0.19547	0.06424	-0.021515	0.014801	-0.0177	-0.055695	-0.024567	0.01709	-0.038452	-0.21072	0	0.035553	0.027466	0.15549	-0.015717	0.058289	0.17364	0.27832	-0.036011	-0.019684	0.045471	0.13825	-0.092468	0.21881	-0.007477	0.15656	-0.008087	0.58884	-0.028687	0.001526	-0.003052
52.195	-0.030518	0.22858	0.065155	-0.031128	0.017853	-0.019531	-0.068512	-0.02121	0.011902	-0.015564	-0.2121	-0.013123	0.02121	-0.022583	-0.30716	-0.005035	0.071716	0.14572	-0.055237	-0.089569	0.000153	-0.023193	0.045471	-0.13519	0.15732	-0.00946	0.12009	-0.003357	0.037079	0.088959	-0.00351	-0.003967
52.196	-0.020599	0.18753	0.071716	-0.024109	0.014038	-0.014954	-0.06073	-0.018158	0.014648	0.019684	-0.2858	-0.005035	-0.012054	-0.050659	0.03067	-0.030365	0.079803	0.1149	0.34012	0.058441	-0.014954	-0.020905	-0.033112	-0.080261	0.15091	-0.008545	0.053253	-0.006256	0.065002	0.029144	0.001221	-0.002747
52.197	-0.00351	0.21866	0.06958	0	0.010223	-0.015717	-0.033875	-0.020752	-0.001526	0.019836	-0.17197	0.001526	-0.028229	-0.061035	0.080109	-0.014343	0.093079	0.16037	0.55054	0.094147	0.020447	0.05127	0.075836	-0.42435	0.12238	-0.007172	-0.017548	-0.007019	-0.093079	-0.050049	-0.000153	-0.012054
52.198	0.002899	0.23071	0.054016	0.00885	0.004578	-0.005951	0.017395	-0.015411	0.005035	0.00351	0.11047	-0.019989	-0.046692	0.014191	0.14893	-0.027008	0.11841	0.23956	-0.058594	0.09552	0.03891	0.11093	0.14694	-0.58197	0.2713	0.008392	-0.063171	-0.007477	-0.078125	-0.12238	-0.000916	-0.009918
52.199	0.005646	0.20554	0.056	0.05249	0.009003	-0.018768	0.1059	-0.016785	0.003662	-0.010681	0.28198	-0.001831	-0.041656	0.08606	-0.18066	-0.036621	0.1712	0.23254	-0.67032	0.15701	-0.088806	0.15442	0.14557	-0.15671	0.36362	0	0.049438	-0.007629	0.70725	-0.090942	-0.003662	-0.010986
52.2	0.006104	0.16159	0.044556	0.052032	0.004883	0.014801	0.12894	-0.012665	0.005341	-0.026855	0.30884	-0.003052	-0.039215	0.13611	-0.32501	-0.02243	0.21835	0.27741	-1.2497	0.15243	0.023346	0.080109	0.11124	0.56992	0.27054	0.004578	0.0177	-0.007172	-0.67154	-0.15045	-0.002441	-0.012817
52.201	0.005188	0.15945	0.035706	0.031281	0.000305	0.028992	0.12161	-0.005798	-0.001373	-0.028992	0.242	-0.002899	-0.032959	0.09491	-0.47623	-0.003357	0.159	0.34958	-1.0803	0.075836	-0.31784	0.046539	0.058136	0.13397	0.2478	0.001831	0.021362	-0.00885	0.032959	-0.029144	0	-0.001526
52.202	0.011902	0.15259	0.037384	-0.006866	0	0.017853	0.1001	-0.006256	-0.009613	-0.018005	-0.1268	-0.006866	0.006561	0.10574	0.59753	-0.020905	0.009155	0.39795	-0.13336	0.024109	-0.4985	0.1561	-0.16617	-0.075226	0.36468	-0.016785	0.031128	-0.00885	-0.22934	0.17548	0.001373	0.002289
52.203	0.00885	0.15579	0.059814	-0.04837	-0.002441	0.019836	0.084991	-0.003052	-0.018616	0.012512	-0.14511	-0.007324	-0.031433	0.10819	0.22797	-0.0177	-0.12833	0.38681	0.91248	-0.037231	-0.31738	0.14923	-0.58456	-0.26871	0.66895	-0.019073	0.028534	-0.010681	0.026398	0.23361	-0.005951	-0.01236
52.204	0.014496	0.16083	0.03067	-0.014343	-0.001526	0.023041	0.025177	-0.005035	-0.014038	0.027008	0.025177	-0.011597	-0.074463	0.11871	0.1712	-0.017395	-0.15701	0.37262	0.63431	0.026245	0.10162	-0.18524	-0.448	-0.41809	0.23666	-0.011292	0.02121	-0.006256	-0.26871	0.14313	-0.002441	-0.007324
52.205	0.001068	0.12466	0.003204	-0.007324	-0.001526	0.023804	-0.10941	-0.008087	0.00351	-0.022888	-0.007629	-0.003357	0.033264	0.088196	0.09903	-0.007019	-0.065765	0.29831	0.27069	0.009155	0.33218	-0.42221	-0.013275	-0.52124	-0.071564	-0.018463	0.058289	0.000153	-0.14832	-0.035858	-0.010986	-0.001831
